<svg xmlns="http://www.w3.org/2000/svg" viewBox="0 0 636 430"><title>docs-gvfs-architecture</title><path d="M636,430H0V0H636Z" fill="#fff"/><rect x="72" y="299" width="139" height="130" fill="#e6e6e6"/><line y1="261.5" x2="1" y2="261.5" fill="none" stroke="#96bcce" stroke-miterlimit="10"/><line x1="2.995" y1="261.5" x2="401.002" y2="261.5" fill="none" stroke="#96bcce" stroke-miterlimit="10" stroke-dasharray="1.995 1.995"/><line x1="402" y1="261.5" x2="403" y2="261.5" fill="none" stroke="#96bcce" stroke-miterlimit="10"/><line x1="403.5" x2="403.5" y2="430" fill="none" stroke="#96bcce" stroke-miterlimit="10" stroke-dasharray="2 2"/><rect x="6" y="143" width="105" height="33" fill="#447995"/><rect x="111" y="334" width="60" height="31" fill="#447995"/><rect x="93" y="367" width="97" height="49" fill="#447995"/><rect x="455" y="55" width="129" height="59" fill="#447995"/><line x1="636" y1="147.5" x2="404" y2="147.5" fill="none" stroke="#96bcce" stroke-miterlimit="10" stroke-dasharray="2 2"/><rect x="140" y="143" width="105" height="33" fill="#447995"/><text transform="translate(143.5 30)" font-size="18" font-family="SegoeUI, Segoe UI">Client machine</text><text transform="translate(417.5 30)" font-size="18" font-family="SegoeUI, Segoe UI">Internet</text><text transform="translate(417.5 173)" font-size="18" font-family="SegoeUI, Segoe UI">Intranet</text><text transform="translate(26.901 162)" font-size="12" fill="#fff" font-family="SegoeUI, Segoe UI">Applications</text><text transform="translate(184.897 162)" font-size="12" fill="#fff" font-family="SegoeUI, Segoe UI">Git</text><rect x="216" y="210" width="105" height="33" fill="#447995"/><text transform="translate(254.657 229)" font-size="12" fill="#fff" font-family="SegoeUI, Segoe UI"><tspan letter-spacing="-0.02em">G</tspan><tspan x="7.998" y="0">VFS</tspan></text><polyline points="59 179.169 59 218 193 218 193 178.169" fill="none" stroke="#b3b3b3" stroke-miterlimit="10" stroke-width="2"/><polygon points="50.82 185.796 52.285 187.16 58.998 179.937 65.713 187.16 67.178 185.796 58.998 177 50.82 185.796" fill="#b3b3b3"/><polygon points="201.18 184.796 199.715 186.16 193.002 178.937 186.287 186.16 184.822 184.796 193.002 176 201.18 184.796" fill="#b3b3b3"/><line x1="142" y1="218" x2="142" y2="331.831" fill="none" stroke="#b3b3b3" stroke-miterlimit="10" stroke-width="2"/><polygon points="133.82 325.204 135.285 323.84 141.998 331.063 148.713 323.84 150.178 325.204 141.998 334 133.82 325.204" fill="#b3b3b3"/><text transform="translate(65.032 210)" font-size="12" font-family="SegoeUI, Segoe UI">File system interactions</text><text transform="translate(5.61 251)" font-size="12" font-family="SegoeUI, Segoe UI">User mode</text><text transform="translate(4.891 279)" font-size="12" font-family="SegoeUI, Segoe UI"><tspan letter-spacing="-0.013em">K</tspan><tspan x="6.803" y="0">ernel mode</tspan></text><text transform="translate(78.369 314)" font-size="12" font-family="SegoeUI, Segoe UI"><tspan letter-spacing="-0.029em">R</tspan><tspan x="6.826" y="0">epository</tspan></text><polyline points="174.169 353 268 353 268 246.169" fill="none" stroke="#b3b3b3" stroke-miterlimit="10" stroke-width="2"/><polygon points="180.796 361.18 182.16 359.715 174.937 353.002 182.16 346.287 180.796 344.822 172 353.002 180.796 361.18" fill="#b3b3b3"/><polygon points="276.18 252.796 274.715 254.16 268.002 246.937 261.287 254.16 259.822 252.796 268.002 244 276.18 252.796" fill="#b3b3b3"/><text transform="translate(127.094 354)" font-size="12" fill="#fff" font-family="SegoeUI, Segoe UI">GvFlt</text><text transform="translate(126.751 394)" font-size="12" fill="#fff" font-family="SegoeUI, Segoe UI">NTFS</text><text transform="translate(345.657 205)" font-size="12" font-family="SegoeUI, Segoe UI"><tspan letter-spacing="-0.02em">G</tspan><tspan x="7.998" y="0">VFS</tspan><tspan x="-8.575" y="12">protocol</tspan></text><line x1="323.169" y1="226" x2="451.831" y2="226" fill="none" stroke="#b3b3b3" stroke-miterlimit="10" stroke-width="2"/><polygon points="329.796 234.18 331.16 232.715 323.937 226.002 331.16 219.287 329.796 217.822 321 226.002 329.796 234.18" fill="#b3b3b3"/><polygon points="445.204 234.18 443.84 232.715 451.063 226.002 443.84 219.287 445.204 217.822 454 226.002 445.204 234.18" fill="#b3b3b3"/><polyline points="390 226 390 99 426 99 426 84" fill="none" stroke="#b3b3b3" stroke-miterlimit="10" stroke-width="2"/><polyline points="247.169 159 268 159 268 83 453.831 83" fill="none" stroke="#b3b3b3" stroke-miterlimit="10" stroke-width="2"/><polygon points="253.796 167.18 255.16 165.715 247.937 159.002 255.16 152.287 253.796 150.822 245 159.002 253.796 167.18" fill="#b3b3b3"/><polygon points="447.204 91.18 445.84 89.715 453.063 83.002 445.84 76.287 447.204 74.822 456 83.002 447.204 91.18" fill="#b3b3b3"/><text transform="translate(486.992 80)" font-size="12" fill="#fff" font-family="SegoeUI, Segoe UI"><tspan letter-spacing="-0.02em">G</tspan><tspan x="7.998" y="0">VFS–aware</tspan><tspan x="5.256" y="15">Git service</tspan></text><rect x="455" y="197" width="129" height="59" fill="#447995"/><text transform="translate(485.917 229)" font-size="12" fill="#fff" font-family="SegoeUI, Segoe UI">Cache server</text><line x1="520" y1="117.169" x2="520" y2="194.831" fill="none" stroke="#b3b3b3" stroke-miterlimit="10" stroke-width="2"/><polygon points="511.82 123.796 513.285 125.16 519.998 117.937 526.713 125.16 528.178 123.796 519.998 115 511.82 123.796" fill="#b3b3b3"/><polygon points="511.82 188.204 513.285 186.84 519.998 194.063 526.713 186.84 528.178 188.204 519.998 197 511.82 188.204" fill="#b3b3b3"/><text transform="translate(265.836 76)" font-size="12" font-family="SegoeUI, Segoe UI">Git protocol</text></svg>